<svg width="12" height="23" viewBox="0 0 12 23" fill="none" xmlns="http://www.w3.org/2000/svg">
<path d="M7.49411 0.265396C5.92382 0.510395 4.68831 1.43021 4.03469 2.84002C3.5644 3.863 3.46874 4.48624 3.46874 6.60526V8.10534H2.11766C1.36838 8.10534 0.718743 8.12253 0.666931 8.14402C0.611134 8.16981 0.527439 8.22998 0.483598 8.28156C0.399902 8.37612 0.399902 8.40621 0.399902 10.3576C0.399902 12.1714 0.407873 12.3477 0.471641 12.4293C0.607149 12.6142 0.65896 12.6185 2.08976 12.6185H3.46874V17.2605V21.9026L3.58432 22.0401L3.6999 22.182L5.55715 22.1949C7.19519 22.2035 7.43034 22.1992 7.53795 22.139C7.78505 22.0015 7.77309 22.2164 7.77309 17.1961V12.6185H9.36729C10.5151 12.6185 10.9854 12.6056 11.0611 12.5669C11.2803 12.4594 11.2803 12.4422 11.2803 10.3447V8.40621L11.1648 8.26867L11.0492 8.12683L9.40715 8.11393L7.76911 8.10104L7.78106 6.71271L7.79302 5.32869L7.91258 5.0751C8.04411 4.80001 8.26331 4.61519 8.55824 4.52922C8.64193 4.50343 9.23179 4.47764 9.86548 4.46905C10.5032 4.45615 11.0651 4.43896 11.1129 4.42607C11.1648 4.41317 11.2524 4.353 11.3043 4.29282L11.3999 4.18107V2.32424C11.3999 0.501799 11.3999 0.467413 11.3162 0.372852C11.2724 0.321274 11.1887 0.261099 11.1329 0.23531C10.9735 0.170835 7.94048 0.196625 7.49411 0.265396Z" fill="white"/>
</svg>
