<svg width="41" height="40" viewBox="0 0 41 40" fill="none" xmlns="http://www.w3.org/2000/svg">
<circle cx="20.6597" cy="20" r="20" fill="white"/>
<mask id="mask0_6911_23766" style="mask-type:alpha" maskUnits="userSpaceOnUse" x="5" y="5" width="31" height="30">
<rect x="5.65967" y="5" width="30" height="30" fill="#C4C4C4"/>
</mask>
<g mask="url(#mask0_6911_23766)">
<path d="M21.1538 10.2654C19.5835 10.5104 18.348 11.4302 17.6944 12.84C17.2241 13.863 17.1284 14.4862 17.1284 16.6053V18.1053H15.7773C15.028 18.1053 14.3784 18.1225 14.3266 18.144C14.2708 18.1698 14.1871 18.23 14.1433 18.2816C14.0596 18.3761 14.0596 18.4062 14.0596 20.3576C14.0596 22.1714 14.0675 22.3477 14.1313 22.4293C14.2668 22.6142 14.3186 22.6185 15.7494 22.6185H17.1284V27.2605V31.9026L17.244 32.0401L17.3596 32.182L19.2168 32.1949C20.8549 32.2035 21.09 32.1992 21.1976 32.139C21.4447 32.0015 21.4328 32.2164 21.4328 27.1961V22.6185H23.027C24.1748 22.6185 24.6451 22.6056 24.7208 22.5669C24.94 22.4594 24.94 22.4422 24.94 20.3447V18.4062L24.8244 18.2687L24.7088 18.1268L23.0668 18.1139L21.4288 18.101L21.4407 16.7127L21.4527 15.3287L21.5723 15.0751C21.7038 14.8 21.923 14.6152 22.2179 14.5292C22.3016 14.5034 22.8915 14.4776 23.5252 14.469C24.1628 14.4562 24.7248 14.439 24.7726 14.4261C24.8244 14.4132 24.9121 14.353 24.9639 14.2928L25.0596 14.1811V12.3242C25.0596 10.5018 25.0596 10.4674 24.9759 10.3729C24.932 10.3213 24.8483 10.2611 24.7925 10.2353C24.6331 10.1708 21.6002 10.1966 21.1538 10.2654Z" fill="#00730C"/>
</g>
</svg>
