<svg width="31" height="32" viewBox="0 0 31 32" fill="none" xmlns="http://www.w3.org/2000/svg">
<mask id="mask0_6530_6273" style="mask-type:alpha" maskUnits="userSpaceOnUse" x="0" y="1" width="31" height="31">
<rect x="0.199951" y="1.2002" width="30" height="30" fill="#C4C4C4"/>
</mask>
<g mask="url(#mask0_6530_6273)">
<path d="M26.6328 15.7408V12.5083H24.9492V15.7408H21.582V17.3571H24.9492V20.5896H26.6328V17.3571H30V15.7408H26.6328Z" fill="white"/>
<path d="M10.1287 15.5424V19.3424H15.5038C14.7191 21.554 12.6063 23.1424 10.1287 23.1424C6.98606 23.1424 4.42866 20.585 4.42866 17.4424C4.42866 14.2998 6.98606 11.7424 10.1287 11.7424C11.491 11.7424 12.802 12.2307 13.8204 13.118L16.317 10.2528C14.607 8.76318 12.4106 7.94238 10.1287 7.94238C4.89036 7.94238 0.628662 12.2041 0.628662 17.4424C0.628662 22.6807 4.89036 26.9424 10.1287 26.9424C15.367 26.9424 19.6287 22.6807 19.6287 17.4424V15.5424H10.1287Z" fill="white"/>
</g>
</svg>
