<svg width="41" height="40" viewBox="0 0 41 40" fill="none" xmlns="http://www.w3.org/2000/svg">
<circle cx="20.6597" cy="20" r="19.5" stroke="white"/>
<mask id="mask0_6911_23778" style="mask-type:alpha" maskUnits="userSpaceOnUse" x="5" y="6" width="31" height="31">
<rect x="5.85962" y="6.2002" width="30" height="30" fill="#C4C4C4"/>
</mask>
<g mask="url(#mask0_6911_23778)">
<path d="M32.2925 20.7408V17.5083H30.6089V20.7408H27.2417V22.3571H30.6089V25.5896H32.2925V22.3571H35.6597V20.7408H32.2925Z" fill="white"/>
<path d="M15.7883 20.5424V24.3424H21.1634C20.3787 26.554 18.2659 28.1424 15.7883 28.1424C12.6457 28.1424 10.0883 25.585 10.0883 22.4424C10.0883 19.2998 12.6457 16.7424 15.7883 16.7424C17.1506 16.7424 18.4616 17.2307 19.48 18.118L21.9766 15.2528C20.2666 13.7632 18.0702 12.9424 15.7883 12.9424C10.55 12.9424 6.28833 17.2041 6.28833 22.4424C6.28833 27.6807 10.55 31.9424 15.7883 31.9424C21.0266 31.9424 25.2883 27.6807 25.2883 22.4424V20.5424H15.7883Z" fill="white"/>
</g>
</svg>
