<svg width="41" height="40" viewBox="0 0 41 40" fill="none" xmlns="http://www.w3.org/2000/svg">
<circle cx="20.6597" cy="20" r="19.5" stroke="white"/>
<path d="M31.7979 31.5308V31.5299H31.8034V23.4614C31.8034 19.5142 30.9536 16.4736 26.3391 16.4736C24.1208 16.4736 22.6321 17.691 22.0244 18.8451H21.9602V16.8421H17.585V31.5299H22.1408V24.2571C22.1408 22.3421 22.5038 20.4905 24.8752 20.4905C27.2118 20.4905 27.2466 22.6758 27.2466 24.3799V31.5308H31.7979Z" fill="white"/>
<path d="M10.0237 16.8433H14.585V31.531H10.0237V16.8433Z" fill="white"/>
<path d="M12.3015 9.16504C10.8431 9.16504 9.65967 10.3485 9.65967 11.8069C9.65967 13.2653 10.8431 14.4735 12.3015 14.4735C13.7599 14.4735 14.9433 13.2653 14.9433 11.8069C14.9424 10.3485 13.759 9.16504 12.3015 9.16504V9.16504Z" fill="white"/>
</svg>
