<svg width="67" height="68" viewBox="0 0 67 68" fill="none" xmlns="http://www.w3.org/2000/svg">
<circle cx="33.5" cy="34" r="33.5" fill="#00730C"/>
<path opacity="0.1" d="M60.8027 45.921C60.8027 64.4226 39.8499 58.7307 21.3484 58.7307C2.84685 58.7307 6.48765 40.9617 6.48765 22.4602C6.48765 3.95865 20.3423 42.587 38.8439 42.587C57.3454 42.587 60.8027 27.4195 60.8027 45.921Z" fill="white"/>
<g clip-path="url(#clip0_4877_3470)">
<g filter="url(#filter0_d_4877_3470)">
<path d="M29.7292 47.9054L29.6457 46.4687C29.6448 46.4527 29.6432 46.4366 29.641 46.4207C29.4446 45.0058 28.8606 43.6728 27.9534 42.5693C27.0463 41.4659 25.8515 40.635 24.5013 40.1686L24.0343 40.0061C23.3872 39.7799 22.7991 39.4111 22.3137 38.927L20.0434 36.6566L19.2664 34.0275C19.0803 33.3375 18.6893 32.7201 18.1449 32.257C17.6006 31.7939 16.9286 31.5068 16.2176 31.4337L16.0901 31.008C16.0887 31.0033 16.0871 30.9982 16.0857 30.994C15.7238 29.8879 14.5201 29.1758 13.2934 29.2571L13.2547 29.129C13.021 28.3433 12.4932 27.6781 11.7813 27.2718C11.0694 26.8656 10.2282 26.7495 9.43285 26.9479C9.28789 26.9839 9.16214 27.0739 9.0813 27.1995C9.00045 27.325 8.97062 27.4768 8.99789 27.6236L11.4855 41.011C11.4906 41.0383 11.4976 41.0652 11.5065 41.0915C12.0906 42.8091 13.2089 44.2947 14.6979 45.3312L20.1307 49.0745C20.1405 49.0816 20.1514 49.0884 20.1622 49.0948C20.5462 49.3238 20.8324 49.6861 20.9662 50.1126L21.3793 55.6937C21.3878 55.8088 21.4301 55.9188 21.5008 56.0099C21.5715 56.101 21.6676 56.1693 21.7769 56.206L21.8887 56.2435C24.3318 57.0707 26.9764 57.089 29.4307 56.2959L29.7033 56.2086C29.8215 56.1707 29.9246 56.0962 29.9978 55.9959C30.071 55.8956 30.1104 55.7747 30.1104 55.6506V52.5274C30.1104 51.2579 29.9988 49.8858 29.7588 48.2075C29.7452 48.1076 29.7349 48.0059 29.7292 47.9054ZM18.1362 34.337C18.1374 34.3422 18.1389 34.3473 18.1405 34.3523L18.4002 35.2312C18.0362 35.0313 17.6418 34.8927 17.2328 34.8211L16.5993 32.7071C16.9705 32.8301 17.3053 33.0434 17.5735 33.328C17.8418 33.6125 18.0352 33.9592 18.1362 34.337ZM14.9699 31.3527L16.006 34.8097C15.6728 34.8591 15.3477 34.9526 15.0392 35.088L13.6463 30.4368C14.2183 30.4931 14.7899 30.8136 14.9699 31.3527ZM28.9387 55.2221C26.8473 55.8684 24.6092 55.8661 22.5192 55.2156L22.1304 49.963C22.1276 49.9236 22.1207 49.8847 22.1099 49.8467C21.9048 49.1168 21.4298 48.4921 20.7812 48.0995L15.3641 44.3673C14.0938 43.4825 13.1365 42.218 12.6297 40.7552L10.2647 28.026C10.6876 28.0391 11.0956 28.1851 11.4308 28.4433C11.766 28.7015 12.0113 29.0587 12.132 29.4642L14.0186 35.7543C13.976 35.7933 13.9341 35.8334 13.8929 35.8744C13.837 35.9304 13.7929 35.9972 13.7635 36.0707C13.7341 36.1442 13.7198 36.2228 13.7217 36.302C13.7235 36.3811 13.7413 36.4591 13.7741 36.5312C13.8069 36.6032 13.854 36.6679 13.9124 36.7213L16.6338 39.2071C17.4263 39.9313 18.1511 40.7262 18.7992 41.5821C18.8454 41.644 18.9034 41.6962 18.9699 41.7357C19.0363 41.7751 19.11 41.801 19.1865 41.8118C19.263 41.8227 19.3409 41.8183 19.4157 41.7989C19.4905 41.7795 19.5608 41.7455 19.6224 41.6989C19.684 41.6523 19.7358 41.5939 19.7748 41.5271C19.8137 41.4604 19.8391 41.3866 19.8495 41.31C19.8598 41.2334 19.8549 41.1555 19.835 41.0809C19.8151 41.0062 19.7806 40.9362 19.7335 40.8749C19.0424 39.9621 18.2694 39.1143 17.4243 38.342L15.2088 36.3188C15.7116 36.0128 16.3025 35.8843 16.8869 35.9539C17.4714 36.0235 18.0155 36.2873 18.4323 36.7029L21.485 39.7555C22.0955 40.3645 22.835 40.8284 23.649 41.113L24.116 41.2755C25.2587 41.6701 26.2704 42.3724 27.0399 43.3049C27.8093 44.2375 28.3066 45.3642 28.477 46.5611L28.559 47.973C28.5666 48.1059 28.5802 48.2407 28.5992 48.3734C28.8306 49.9955 28.9385 51.3154 28.9385 52.5277L28.9387 55.2221Z" fill="white"/>
</g>
<g filter="url(#filter1_d_4877_3470)">
<path d="M57.5671 26.9478C56.7718 26.7494 55.9308 26.8654 55.2189 27.2715C54.507 27.6777 53.9792 28.3427 53.7453 29.1282L53.7062 29.2574C52.4798 29.1762 51.2759 29.8882 50.9138 30.9943C50.9124 30.9989 50.9108 31.0036 50.9094 31.0083L50.7823 31.4336C50.0714 31.5067 49.3994 31.7937 48.8551 32.2568C48.3107 32.7198 47.9196 33.3371 47.7335 34.027L46.9564 36.6562L44.6862 38.9265C44.2008 39.4106 43.6128 39.7794 42.9657 40.0056L42.4985 40.1681C41.1483 40.6345 39.9535 41.4654 39.0464 42.5689C38.1393 43.6723 37.5553 45.0053 37.3589 46.4202C37.3567 46.4361 37.3551 46.4522 37.3542 46.4682L37.2707 47.9053C37.265 48.0054 37.2547 48.1071 37.2405 48.2075C37.0009 49.8857 36.8889 51.2583 36.8889 52.5273V55.6501C36.8889 55.7723 36.9272 55.8915 36.9983 55.9909C37.0694 56.0904 37.1699 56.1651 37.2856 56.2046C39.7652 57.0455 42.4499 57.0639 44.9408 56.2569L45.0934 56.2071C45.2018 56.1717 45.2976 56.1055 45.3689 56.0164C45.4402 55.9274 45.484 55.8196 45.4949 55.706L46.0312 50.1178C46.1643 49.6889 46.4513 49.3243 46.8371 49.0943C46.8479 49.088 46.8584 49.0811 46.8686 49.074L52.3034 45.33C53.7916 44.2938 54.9094 42.8087 55.4934 41.0918C55.5023 41.0655 55.5093 41.0386 55.5144 41.0113L58.002 27.6235C58.0293 27.4767 57.9995 27.3249 57.9186 27.1994C57.8378 27.0738 57.712 26.9838 57.5671 26.9478ZM52.0299 31.3521C52.2099 30.8128 52.7819 30.4922 53.3538 30.436L52.0098 34.9297L51.961 35.0878C51.6525 34.9525 51.3274 34.8589 50.9942 34.8095L52.0299 31.3521ZM48.8594 34.3522C48.861 34.3472 48.8625 34.3425 48.8637 34.3369C48.9648 33.9592 49.1581 33.6125 49.4264 33.328C49.6947 33.0436 50.0295 32.8303 50.4006 32.7073L49.767 34.8214C49.3581 34.8931 48.9637 35.0317 48.5997 35.2315L48.8594 34.3522ZM54.37 40.7551C53.8635 42.2174 52.9068 43.4815 51.6372 44.3662L46.2187 48.0994C45.5701 48.492 45.0951 49.1167 44.89 49.8466C44.8803 49.8805 44.8738 49.9151 44.8705 49.9501L44.3656 55.2099C42.3104 55.8295 40.1188 55.834 38.0611 55.2228V52.5273C38.0611 51.315 38.1685 49.9951 38.4004 48.3731C38.4194 48.2402 38.433 48.1054 38.4406 47.9727L38.5226 46.5604C38.693 45.3635 39.1903 44.2368 39.9597 43.3043C40.7291 42.3717 41.7408 41.6695 42.8835 41.2748L43.3507 41.1123C44.1646 40.8277 44.9042 40.3638 45.5146 39.7549L48.5673 36.7023C48.9841 36.2867 49.5282 36.0229 50.1127 35.9533C50.6971 35.8836 51.288 36.0121 51.7908 36.3181L49.5755 38.3416C48.7304 39.1139 47.9574 39.9617 47.2663 40.8745C47.2192 40.9358 47.1847 41.0058 47.1648 41.0805C47.1449 41.1552 47.14 41.233 47.1503 41.3096C47.1607 41.3862 47.1861 41.46 47.225 41.5268C47.264 41.5935 47.3158 41.6519 47.3774 41.6985C47.439 41.7452 47.5093 41.7791 47.5841 41.7985C47.6589 41.8179 47.7368 41.8223 47.8133 41.8114C47.8898 41.8006 47.9635 41.7747 48.0299 41.7353C48.0964 41.6958 48.1544 41.6437 48.2006 41.5817C48.8487 40.7258 49.5735 39.9309 50.366 39.2067L53.0879 36.7206C53.1463 36.6672 53.1933 36.6025 53.2261 36.5304C53.2588 36.4583 53.2766 36.3804 53.2784 36.3012C53.2802 36.2221 53.2659 36.1434 53.2364 36.0699C53.2069 35.9964 53.1629 35.9297 53.1069 35.8737C53.0658 35.8325 53.0239 35.7924 52.9812 35.7535L54.8679 29.4634C54.9885 29.0578 55.2339 28.7006 55.5691 28.4425C55.9042 28.1844 56.3123 28.0384 56.7351 28.0254L54.37 40.7551Z" fill="white"/>
</g>
<g filter="url(#filter2_d_4877_3470)">
<path d="M41.7932 23.4333C43.5158 22.0206 44.5599 20.0567 44.8126 17.7539L45.4395 12.7861C45.4502 12.7015 45.4422 12.6155 45.4163 12.5343C45.3903 12.453 45.3469 12.3785 45.2891 12.3157C45.2313 12.253 45.1605 12.2036 45.0816 12.1711C45.0028 12.1386 44.9178 12.1237 44.8326 12.1274C39.6845 12.352 35.6465 17.5259 35.8314 23.6606L35.8705 24.9566C35.2662 26.1631 34.7586 27.4157 34.3526 28.7026C34.0253 27.9462 33.6015 27.2354 33.0918 26.5878C32.9767 25.4026 32.7766 24.2272 32.4932 23.0707C31.9108 20.8039 30.4116 19.0461 28.4828 18.3688L22.3358 16.2095C22.2454 16.1778 22.1487 16.1687 22.054 16.183C21.9593 16.1973 21.8696 16.2346 21.7927 16.2916C21.7157 16.3487 21.654 16.4237 21.6127 16.5101C21.5715 16.5966 21.5521 16.6918 21.5562 16.7874C21.7193 20.5952 23.0826 23.8404 25.2964 25.6909C26.6662 26.8358 28.3366 27.4251 30.1822 27.4251C30.5908 27.4246 30.9989 27.3968 31.4039 27.3418L32.1582 27.2951C32.7262 28.0136 33.1732 28.82 33.4817 29.6825C33.88 30.7917 34.0227 31.8582 33.9085 32.8587H27.789C27.7061 32.8587 27.624 32.8763 27.5484 32.9104C27.4727 32.9444 27.4052 32.9941 27.3502 33.0563C27.2952 33.1184 27.254 33.1914 27.2294 33.2707C27.2047 33.3499 27.1972 33.4334 27.2073 33.5158L28.0206 40.1726C28.0379 40.3146 28.1067 40.4454 28.2138 40.5403C28.321 40.6351 28.4591 40.6875 28.6022 40.6874H38.3971C38.5402 40.6875 38.6784 40.6351 38.7855 40.5403C38.8927 40.4454 38.9614 40.3146 38.9788 40.1726L39.792 33.5158C39.8021 33.4334 39.7946 33.3499 39.7699 33.2707C39.7453 33.1914 39.7041 33.1184 39.6491 33.0563C39.5941 32.9941 39.5266 32.9444 39.4509 32.9104C39.3753 32.8763 39.2933 32.8587 39.2103 32.8587H35.0862C35.1468 32.1987 35.1202 31.5335 35.0072 30.8804C35.358 29.0657 36.0619 27.2177 36.8668 25.5806C38.7124 25.2881 40.4553 24.5306 41.7932 23.4333ZM44.1858 13.365L43.6499 17.6121L43.6487 17.6218C43.2252 21.4988 40.3983 23.5293 37.5717 24.2429C37.9922 23.4951 38.4198 22.8171 38.8232 22.2393L41.1397 18.9226C41.2278 18.7952 41.2619 18.638 41.2344 18.4856C41.207 18.3331 41.1203 18.1977 40.9933 18.109C40.8663 18.0203 40.7093 17.9855 40.5567 18.0122C40.4041 18.0389 40.2683 18.125 40.179 18.2516L37.8625 21.5683C37.5839 21.9671 37.2943 22.4124 37.0031 22.894C37.1466 18.0059 40.2101 13.9526 44.1853 13.3648L44.1858 13.365ZM27.4784 21.3067C27.3635 21.202 27.2117 21.1473 27.0565 21.1545C26.9013 21.1617 26.7552 21.2303 26.6506 21.3452C26.5459 21.4601 26.4912 21.6118 26.4984 21.7671C26.5056 21.9223 26.5742 22.0683 26.6891 22.173L31.1057 26.1964C29.1428 26.4273 27.4414 25.9566 26.0479 24.7919C24.2528 23.2914 23.0867 20.7053 22.7876 17.6105L28.0944 19.4742C29.6533 20.0216 30.8733 21.475 31.3582 23.362C31.4979 23.9057 31.6204 24.5132 31.7254 25.1756L27.4784 21.3067ZM38.5487 34.0306L37.8787 39.5156H29.1209L28.451 34.0306H38.5487Z" fill="white"/>
</g>
</g>
<defs>
<filter id="filter0_d_4877_3470" x="-1.01196" y="16.8533" width="41.1223" height="50.0243" filterUnits="userSpaceOnUse" color-interpolation-filters="sRGB">
<feFlood flood-opacity="0" result="BackgroundImageFix"/>
<feColorMatrix in="SourceAlpha" type="matrix" values="0 0 0 0 0 0 0 0 0 0 0 0 0 0 0 0 0 0 127 0" result="hardAlpha"/>
<feOffset/>
<feGaussianBlur stdDeviation="5"/>
<feComposite in2="hardAlpha" operator="out"/>
<feColorMatrix type="matrix" values="0 0 0 0 0 0 0 0 0 0 0 0 0 0 0 0 0 0 0.25 0"/>
<feBlend mode="normal" in2="BackgroundImageFix" result="effect1_dropShadow_4877_3470"/>
<feBlend mode="normal" in="SourceGraphic" in2="effect1_dropShadow_4877_3470" result="shape"/>
</filter>
<filter id="filter1_d_4877_3470" x="26.8889" y="16.8531" width="41.123" height="49.9958" filterUnits="userSpaceOnUse" color-interpolation-filters="sRGB">
<feFlood flood-opacity="0" result="BackgroundImageFix"/>
<feColorMatrix in="SourceAlpha" type="matrix" values="0 0 0 0 0 0 0 0 0 0 0 0 0 0 0 0 0 0 127 0" result="hardAlpha"/>
<feOffset/>
<feGaussianBlur stdDeviation="5"/>
<feComposite in2="hardAlpha" operator="out"/>
<feColorMatrix type="matrix" values="0 0 0 0 0 0 0 0 0 0 0 0 0 0 0 0 0 0 0.25 0"/>
<feBlend mode="normal" in2="BackgroundImageFix" result="effect1_dropShadow_4877_3470"/>
<feBlend mode="normal" in="SourceGraphic" in2="effect1_dropShadow_4877_3470" result="shape"/>
</filter>
<filter id="filter2_d_4877_3470" x="11.5557" y="2.12683" width="43.8884" height="48.5607" filterUnits="userSpaceOnUse" color-interpolation-filters="sRGB">
<feFlood flood-opacity="0" result="BackgroundImageFix"/>
<feColorMatrix in="SourceAlpha" type="matrix" values="0 0 0 0 0 0 0 0 0 0 0 0 0 0 0 0 0 0 127 0" result="hardAlpha"/>
<feOffset/>
<feGaussianBlur stdDeviation="5"/>
<feComposite in2="hardAlpha" operator="out"/>
<feColorMatrix type="matrix" values="0 0 0 0 0 0 0 0 0 0 0 0 0 0 0 0 0 0 0.25 0"/>
<feBlend mode="normal" in2="BackgroundImageFix" result="effect1_dropShadow_4877_3470"/>
<feBlend mode="normal" in="SourceGraphic" in2="effect1_dropShadow_4877_3470" result="shape"/>
</filter>
<clipPath id="clip0_4877_3470">
<rect width="50" height="50" fill="white" transform="translate(8.5 9.5)"/>
</clipPath>
</defs>
</svg>
