<svg width="67" height="68" viewBox="0 0 67 68" fill="none" xmlns="http://www.w3.org/2000/svg">
<circle cx="33.5" cy="34" r="33.5" fill="#00730C"/>
<path opacity="0.1" d="M60.8027 45.921C60.8027 64.4226 39.8499 58.7307 21.3484 58.7307C2.84685 58.7307 6.48765 40.9617 6.48765 22.4602C6.48765 3.95865 20.3423 42.587 38.8439 42.587C57.3454 42.587 60.8027 27.4195 60.8027 45.921Z" fill="white"/>
<g clip-path="url(#clip0_4877_3489)">
<g filter="url(#filter0_d_4877_3489)">
<path d="M57.0785 32.2444L52.6676 36.6553L45.5125 29.5002L49.9234 25.0894L48.745 23.911L43.745 28.9111L39.8225 32.8336H27.179L23.2564 28.9111L18.2564 23.911L17.078 25.0894L21.4889 29.5002L14.3339 36.6553L9.92297 32.2444L8.74463 33.4228L13.7447 38.4228L17.9114 42.5895L22.3281 46.9829L21.6614 47.6496C20.6503 48.6496 20.6413 50.28 21.6413 51.2912C21.648 51.298 21.6547 51.3046 21.6614 51.3113C22.1257 51.7713 22.7465 52.0391 23.3998 52.0613C23.4238 52.7133 23.6963 53.3313 24.1615 53.7888C24.6259 54.2485 25.2467 54.5163 25.8998 54.5388C25.9252 55.1919 26.1999 55.8104 26.6673 56.2672C27.1318 56.7269 27.7525 56.9947 28.4057 57.0172C28.4297 57.6692 28.7022 58.2872 29.1673 58.7447C30.1853 59.7503 31.8228 59.7503 32.8407 58.7447L33.5007 58.0839L34.1607 58.7397C35.1777 59.7548 36.8249 59.7534 37.84 58.7364C38.301 58.2746 38.5716 57.6566 38.5983 57.0047C39.2524 56.981 39.8735 56.7115 40.3375 56.2497C40.8024 55.7894 41.0744 55.1693 41.0983 54.5155C41.7526 54.4915 42.3736 54.2216 42.8375 53.7597C43.3024 53.2993 43.5745 52.6792 43.5983 52.0255C45.0289 51.9761 46.1485 50.7764 46.099 49.3459C46.0763 48.6879 45.804 48.0632 45.3375 47.5988L44.7058 46.9696L49.0884 42.587L53.2551 38.4203L58.2551 33.4203L57.0785 32.2444ZM15.5122 37.8337L22.6673 30.6786L25.6556 33.6669L18.5006 40.822L15.5122 37.8337ZM24.1673 50.1263C23.799 50.4942 23.2023 50.4942 22.8339 50.1263C22.4763 49.7738 22.4722 49.1981 22.8247 48.8405C22.8277 48.8374 22.8308 48.8343 22.8339 48.8313L23.5114 48.1596L24.834 49.4663L24.1673 50.1263ZM26.6565 52.6071C26.2887 52.9665 25.701 52.9658 25.334 52.6055C24.9762 52.2519 24.9726 51.6753 25.3263 51.3173C25.3289 51.3147 25.3314 51.3121 25.334 51.3096L26.0081 50.643L27.3232 51.9496L26.6565 52.6071ZM29.1673 55.0838C28.7987 55.4508 28.2026 55.4508 27.834 55.0838C27.4764 54.7313 27.4722 54.1557 27.8247 53.7981C27.8277 53.795 27.8309 53.7918 27.834 53.7888L28.5057 53.1221L29.8198 54.4288L29.1673 55.0838ZM31.6674 57.5622C31.2994 57.9248 30.7086 57.9248 30.3407 57.5622C29.9831 57.2097 29.9789 56.6341 30.3314 56.2765C30.3344 56.2733 30.3376 56.2702 30.3407 56.2672L31.0074 55.6047L32.3215 56.9114L31.6674 57.5622ZM44.1687 50.0867C44.1672 50.0883 44.1657 50.0897 44.1642 50.0913H44.1675C43.8012 50.4548 43.2104 50.4548 42.8442 50.0913L41.5941 48.8463C41.2681 48.5214 40.7403 48.5223 40.4154 48.8484C40.0905 49.1744 40.0914 49.7022 40.4175 50.0271L41.6675 51.2721C42.029 51.6311 42.031 52.2153 41.6721 52.5767C41.6705 52.5783 41.669 52.5797 41.6675 52.5813C41.3012 52.9449 40.7104 52.9449 40.3441 52.5813L39.0941 51.3363C38.7681 51.0114 38.2402 51.0123 37.9153 51.3384C37.5904 51.6644 37.5914 52.1922 37.9174 52.5171L39.1674 53.7622C39.529 54.1211 39.531 54.7053 39.172 55.0668C39.1705 55.0683 39.169 55.0698 39.1674 55.0713C38.8012 55.4349 38.2104 55.4349 37.8441 55.0713L36.5941 53.8263C36.268 53.5014 35.7402 53.5024 35.4153 53.8284C35.0904 54.1544 35.0914 54.6823 35.4174 55.0072L36.6674 56.2522C37.029 56.6111 37.031 57.1953 36.672 57.5568C36.6704 57.5583 36.669 57.5598 36.6674 57.5614C36.3007 57.9246 35.7099 57.9246 35.3432 57.5614L19.6806 42.0004L27.1807 34.5003H29.8565L23.7398 40.7604C23.4207 41.0868 23.4237 41.6092 23.7465 41.932C24.7793 42.9752 26.1661 43.5926 27.6323 43.662C29.1078 43.7402 30.547 43.1879 31.5915 42.1429C31.6284 42.1064 31.6615 42.0665 31.6907 42.0237L31.9924 41.5812C33.7919 43 36.1376 43.5262 38.3708 43.012L44.1642 48.7821C44.5256 49.1411 44.5277 49.7252 44.1687 50.0867ZM43.5317 45.7962L40.0358 42.3145L40.6675 41.8337C40.6971 41.8106 40.725 41.7853 40.7508 41.7579L41.5841 40.9245L40.4058 39.7462L39.6133 40.5387L38.8924 41.082C36.6674 42.0338 34.0853 41.502 32.4174 39.7487C32.092 39.4232 31.5643 39.4232 31.2388 39.7485C31.2022 39.7851 31.169 39.825 31.1399 39.8678L30.3524 41.0204C29.6402 41.6945 28.6835 42.0485 27.704 42.0004C26.9379 41.9609 26.1972 41.7124 25.5623 41.282L32.1849 34.5003H39.8225L47.3225 42.0004L43.5317 45.7962ZM48.5009 40.822L41.3458 33.6669L44.3342 30.6786L51.4892 37.8337L48.5009 40.822Z" fill="white"/>
</g>
<g filter="url(#filter1_d_4877_3489)">
<path d="M19.3342 37.0002H17.6675V38.6669H19.3342V37.0002Z" fill="white"/>
</g>
<g filter="url(#filter2_d_4877_3489)">
<path d="M49.3347 37.0002H47.668V38.6669H49.3347V37.0002Z" fill="white"/>
</g>
<g filter="url(#filter3_d_4877_3489)">
<path d="M35.1676 24.5002C38.8478 24.496 41.8301 21.5137 41.8343 17.8334C41.8343 17.3732 41.4612 17.0001 41.001 17.0001H39.3343C37.418 17.0011 35.5955 17.8291 34.3342 19.2718V16.1667H35.1676C38.3877 16.1631 40.9973 13.5535 41.001 10.3333C41.001 9.87313 40.6278 9.5 40.1676 9.5H38.5009C36.4502 9.50323 34.5517 10.5831 33.5009 12.3442C32.45 10.5831 30.5516 9.50323 28.5008 9.5H26.8342C26.374 9.5 26.0008 9.87313 26.0008 10.3333C26.0045 13.5535 28.6141 16.1631 31.8342 16.1667H32.6676V19.2718C31.4063 17.8291 29.5838 17.0011 27.6675 17.0001H26.0008C25.5406 17.0001 25.1675 17.3732 25.1675 17.8334C25.1716 21.5137 28.154 24.496 31.8342 24.5002H32.6676V25.8218L27.3225 31.1669H29.6792L33.5009 27.3452L37.3226 31.1669H39.6793L34.3342 25.8218V24.5002H35.1676ZM39.3343 18.6668H40.0985C39.6886 21.071 37.6065 22.8305 35.1676 22.8335H34.4034C34.8132 20.4293 36.8953 18.6698 39.3343 18.6668ZM38.5009 11.1667H39.2509C38.8525 13.1056 37.147 14.4979 35.1676 14.5001H34.4176C34.8159 12.5612 36.5215 11.1689 38.5009 11.1667ZM31.8342 14.5001C29.8548 14.4979 28.1493 13.1056 27.7508 11.1667H28.5008C30.4802 11.1689 32.1858 12.5612 32.5842 14.5001H31.8342ZM31.8342 22.8335C29.3953 22.8305 27.3132 21.071 26.9033 18.6668H27.6675C30.1064 18.6698 32.1885 20.4293 32.5984 22.8335H31.8342Z" fill="white"/>
</g>
</g>
<defs>
<filter id="filter0_d_4877_3489" x="-1.25537" y="17.911" width="69.5107" height="55.5891" filterUnits="userSpaceOnUse" color-interpolation-filters="sRGB">
<feFlood flood-opacity="0" result="BackgroundImageFix"/>
<feColorMatrix in="SourceAlpha" type="matrix" values="0 0 0 0 0 0 0 0 0 0 0 0 0 0 0 0 0 0 127 0" result="hardAlpha"/>
<feOffset dy="4"/>
<feGaussianBlur stdDeviation="5"/>
<feComposite in2="hardAlpha" operator="out"/>
<feColorMatrix type="matrix" values="0 0 0 0 0 0 0 0 0 0 0 0 0 0 0 0 0 0 0.2 0"/>
<feBlend mode="normal" in2="BackgroundImageFix" result="effect1_dropShadow_4877_3489"/>
<feBlend mode="normal" in="SourceGraphic" in2="effect1_dropShadow_4877_3489" result="shape"/>
</filter>
<filter id="filter1_d_4877_3489" x="7.66748" y="31.0002" width="21.6665" height="21.6666" filterUnits="userSpaceOnUse" color-interpolation-filters="sRGB">
<feFlood flood-opacity="0" result="BackgroundImageFix"/>
<feColorMatrix in="SourceAlpha" type="matrix" values="0 0 0 0 0 0 0 0 0 0 0 0 0 0 0 0 0 0 127 0" result="hardAlpha"/>
<feOffset dy="4"/>
<feGaussianBlur stdDeviation="5"/>
<feComposite in2="hardAlpha" operator="out"/>
<feColorMatrix type="matrix" values="0 0 0 0 0 0 0 0 0 0 0 0 0 0 0 0 0 0 0.2 0"/>
<feBlend mode="normal" in2="BackgroundImageFix" result="effect1_dropShadow_4877_3489"/>
<feBlend mode="normal" in="SourceGraphic" in2="effect1_dropShadow_4877_3489" result="shape"/>
</filter>
<filter id="filter2_d_4877_3489" x="37.668" y="31.0002" width="21.6665" height="21.6666" filterUnits="userSpaceOnUse" color-interpolation-filters="sRGB">
<feFlood flood-opacity="0" result="BackgroundImageFix"/>
<feColorMatrix in="SourceAlpha" type="matrix" values="0 0 0 0 0 0 0 0 0 0 0 0 0 0 0 0 0 0 127 0" result="hardAlpha"/>
<feOffset dy="4"/>
<feGaussianBlur stdDeviation="5"/>
<feComposite in2="hardAlpha" operator="out"/>
<feColorMatrix type="matrix" values="0 0 0 0 0 0 0 0 0 0 0 0 0 0 0 0 0 0 0.2 0"/>
<feBlend mode="normal" in2="BackgroundImageFix" result="effect1_dropShadow_4877_3489"/>
<feBlend mode="normal" in="SourceGraphic" in2="effect1_dropShadow_4877_3489" result="shape"/>
</filter>
<filter id="filter3_d_4877_3489" x="15.1675" y="3.5" width="36.667" height="41.6669" filterUnits="userSpaceOnUse" color-interpolation-filters="sRGB">
<feFlood flood-opacity="0" result="BackgroundImageFix"/>
<feColorMatrix in="SourceAlpha" type="matrix" values="0 0 0 0 0 0 0 0 0 0 0 0 0 0 0 0 0 0 127 0" result="hardAlpha"/>
<feOffset dy="4"/>
<feGaussianBlur stdDeviation="5"/>
<feComposite in2="hardAlpha" operator="out"/>
<feColorMatrix type="matrix" values="0 0 0 0 0 0 0 0 0 0 0 0 0 0 0 0 0 0 0.2 0"/>
<feBlend mode="normal" in2="BackgroundImageFix" result="effect1_dropShadow_4877_3489"/>
<feBlend mode="normal" in="SourceGraphic" in2="effect1_dropShadow_4877_3489" result="shape"/>
</filter>
<clipPath id="clip0_4877_3489">
<rect width="50" height="50" fill="white" transform="translate(8.5 9.5)"/>
</clipPath>
</defs>
</svg>
