<svg width="20" height="26" viewBox="0 0 20 26" fill="none" xmlns="http://www.w3.org/2000/svg">
<path fill-rule="evenodd" clip-rule="evenodd" d="M19.5258 8.79303C19.5258 14.3379 16.4432 18.4811 11.8988 18.4811C10.3721 18.4811 8.93741 17.6557 8.44569 16.7187C8.44569 16.7187 7.62474 19.9756 7.45177 20.6044C6.83964 22.8255 5.03899 25.0475 4.89983 25.2302C4.80181 25.3567 4.58694 25.3169 4.5638 25.1494C4.52477 24.8663 4.06604 22.0636 4.6064 19.7772C4.87733 18.6291 6.42427 12.0747 6.42427 12.0747C6.42427 12.0747 5.97368 11.1721 5.97368 9.83846C5.97368 7.74291 7.18757 6.17951 8.6994 6.17951C9.98507 6.17951 10.6056 7.1442 10.6056 8.30119C10.6056 9.59441 9.78309 11.5268 9.35806 13.3171C9.00321 14.8169 10.1101 16.0404 11.5889 16.0404C14.2667 16.0404 16.0704 12.6 16.0704 8.5242C16.0704 5.42658 13.9846 3.10727 10.1887 3.10727C5.90185 3.10727 3.22933 6.30514 3.22933 9.8773C3.22933 11.1092 3.59302 11.9781 4.16249 12.6494C4.423 12.9584 4.46044 13.0827 4.36534 13.4374C4.29643 13.6979 4.14227 14.3236 4.07647 14.572C3.9829 14.9305 3.69245 15.0578 3.36925 14.9259C1.39493 14.1199 0.474365 11.9563 0.474365 9.52551C0.474541 5.51055 3.86102 0.695312 10.5772 0.695312C15.9746 0.695312 19.5258 4.59971 19.5258 8.79303Z" fill="white"/>
</svg>
