<svg width="41" height="40" viewBox="0 0 41 40" fill="none" xmlns="http://www.w3.org/2000/svg">
<circle cx="20.6597" cy="20" r="19.5" stroke="white"/>
<mask id="mask0_6911_23791" style="mask-type:alpha" maskUnits="userSpaceOnUse" x="8" y="9" width="25" height="25">
<rect x="8.42432" y="9.76465" width="24" height="24" fill="#C4C4C4"/>
</mask>
<g mask="url(#mask0_6911_23791)">
<path d="M32.4243 14.3231C31.5318 14.7146 30.5808 14.9741 29.5893 15.1001C30.6093 14.4911 31.3878 13.5341 31.7538 12.3806C30.8028 12.9476 29.7528 13.3481 28.6338 13.5716C27.7308 12.6101 26.4438 12.0146 25.0398 12.0146C22.3158 12.0146 20.1228 14.2256 20.1228 16.9361C20.1228 17.3261 20.1558 17.7011 20.2368 18.0581C16.1463 17.8586 12.5268 15.8981 10.0953 12.9116C9.67082 13.6481 9.42182 14.4911 9.42182 15.3986C9.42182 17.1026 10.2993 18.6131 11.6073 19.4876C10.8168 19.4726 10.0413 19.2431 9.38432 18.8816C9.38432 18.8966 9.38432 18.9161 9.38432 18.9356C9.38432 21.3266 11.0898 23.3126 13.3263 23.7701C12.9258 23.8796 12.4893 23.9321 12.0363 23.9321C11.7213 23.9321 11.4033 23.9141 11.1048 23.8481C11.7423 25.7966 13.5513 27.2291 15.7023 27.2756C14.0283 28.5851 11.9028 29.3741 9.60182 29.3741C9.19832 29.3741 8.81132 29.3561 8.42432 29.3066C10.6038 30.7121 13.1868 31.5146 15.9723 31.5146C25.0263 31.5146 29.9763 24.0146 29.9763 17.5136C29.9763 17.2961 29.9688 17.0861 29.9583 16.8776C30.9348 16.1846 31.7553 15.3191 32.4243 14.3231Z" fill="white"/>
</g>
</svg>
